<?xml version="1.0" encoding="utf-8"?>
<!-- Generator: Adobe Illustrator 21.0.0, SVG Export Plug-In . SVG Version: 6.00 Build 0)  -->
<svg version="1.1" id="Layer_1" xmlns="http://www.w3.org/2000/svg" xmlns:xlink="http://www.w3.org/1999/xlink" x="0px" y="0px"
	 viewBox="0 0 411.3 162.1" style="enable-background:new 0 0 411.3 162.1;" xml:space="preserve">
<style type="text/css">
	.st0{fill:#FFFFFF;}
	.st1{fill:#E95A68;}
	.st2{fill:#CA222C;}
	.st3{fill:#E94F5B;}
</style>
<g>
	<g>
		<path class="st0" d="M92.1,36.2c-1.9,1.7-6.4,4.9-13.8,4.9c-9.7,0-17.3-5.3-17.3-15.9c0-11.1,7.8-16.5,17.4-16.5
			c11,0,13.2,8.1,13.6,12.4c-5.5,2.3-12.2,4.1-18.5,5.5c0.7,4.2,2.7,9.7,11,9.8c3.9,0,6.2-1.3,7.2-1.7L92.1,36.2z M72.9,23.1
			c3.3-0.4,5.8-0.7,9.1-1.6c-0.1-1.9-0.7-9.8-5.1-9.8c-3.5,0-4.1,4.6-4.1,7.9C72.7,20.8,72.9,21.9,72.9,23.1z"/>
		<path class="st0" d="M118.8,37.3c-0.7,0.5-5.5,3.8-11.9,3.8C89,41.1,89,28.1,89,25.4c0-4.4,4-16.7,18.7-16.7
			c9.1,0,9.5,2.6,10.3,2.7c-0.4,2.7-1.3,4.5-3.6,6.6h-1c-0.9-1.3-4-5.5-7.4-5.5c-3.5,0-5.3,4.4-5.3,10.1c0,9.5,5.5,13.8,11.8,13.8
			c2.6,0,4.1-0.3,5.5-0.5L118.8,37.3z"/>
		<path class="st0" d="M169.9,36.2c-1.9,1.7-6.4,4.9-13.8,4.9c-9.7,0-17.3-5.3-17.3-15.9c0-11.1,7.8-16.5,17.4-16.5
			c11,0,13.2,8.1,13.6,12.4c-5.5,2.3-12.2,4.1-18.5,5.5c0.7,4.2,2.7,9.7,11,9.8c3.9,0,6.2-1.3,7.2-1.7L169.9,36.2z M150.7,23.1
			c3.3-0.4,5.8-0.7,9.1-1.6c-0.1-1.9-0.7-9.8-5.1-9.8c-3.5,0-4.1,4.6-4.1,7.9C150.6,20.8,150.7,21.9,150.7,23.1z"/>
		<path class="st0" d="M57,19.3c-0.2-1.9-2.1-7.6-6.5-7.6c-0.3,0-3.4,0-3.4,3.3c0,1.6,0,3.5,9.2,7.8c4.1,1.9,5.9,5.6,5.9,8.4
			c0,7.3-6.5,10-14,10c-4,0-7-0.7-10.3-2.3c-0.5-2.5-1.1-6.5-1.1-10.2h3.8c0.7,6.1,4.5,9.4,7.7,9.4c3.3,0,3.9-1.9,3.9-3.7
			c0-1.4-1.2-3.5-4.9-5.5c-4.4-2.3-10.2-4.3-10.2-10.8c0-5.7,4.3-9.4,13.4-9.4c4.5,0,7.4,1.1,9.1,1.9c0.7,2.8,0.7,5.9,0.7,8.7H57"/>
		<path class="st0" d="M169.2,9.7l0-3.2c0-7.4,10.9-6.2,10.9-6.2l0,9.4c2.9,0.3,4.7,0.3,7.5,0.5V12c-2.2,0.3-5.3,0.7-7.5,0.7v11
			c0,7,0.1,12.8,6.2,12.8c1.3,0,2.4-0.4,3.1-0.6l0.5,1.7c-1.9,1.2-5.1,3.5-12.4,3.5c-1,0-8.2,0-8.2-9.5V12.7V9.7z"/>
		<path class="st0" d="M120.8,41.1l0.1-20.1c0-4.5,0-7-1.9-7h-1.9l-0.5-2c6.2-1.8,9.1-2.5,14-3.3c0.5,1.8,0.5,2.4,0.7,4.7
			c1.7-1.7,4.1-4.7,7.8-4.7c3.7,0,5.1,2.7,5.8,4.1c-0.5,2.5-2.1,4.5-4.7,6c-1.9,0-3.6-1.9-6.8-2.7c-0.5-0.1-1.1-0.3-1.6-0.3V32
			l-0.1,2.8C131.7,42.2,120.8,41.1,120.8,41.1z"/>
	</g>
	<g>
		<path class="st0" d="M274.8,38.2c-1.7,1.3-5.2,2.8-10.6,2.8c-7.6,0-15.6-4.5-15.6-14.1c0-12.8,9.1-18.3,17.2-18.3
			c3.2,0,6.2,0.7,7.8,1.9c0,1.3-0.7,3.3-1.7,4.9h-0.4c-1-1.4-3.5-3.7-7.8-3.7c-4.8,0-8.8,3.8-8.8,11.4c0,10.6,5.4,15.6,13,15.6
			c2.7,0,5.5-1.5,6.4-2.1L274.8,38.2z"/>
		<path class="st0" d="M302,39.3c-0.9,0.6-2.3,1.7-5.1,1.7c-3.4,0-4.6-1.4-5.3-2.8c-2.1,1.4-4.6,2.8-9.8,2.8c-4.9,0-8.3-2.8-8.3-6.5
			c0-8.7,11.6-11.3,17.5-13v-1.5c0-4.4-1.2-8.2-6.2-8.2c-5.3,0-7,4.2-8.3,6.7h-0.5c-0.7-0.8-1.3-1.5-1.7-2.7c2-2.7,6.3-7.2,13.4-7.2
			c7.6,0,9.2,4,9.2,10.8V29c0,4.7,0,9.7,3.7,9.7c0.7,0,0.9-0.1,1.2-0.3L302,39.3z M290,24.6c-3.8,0-10.4,1.7-10.4,8
			c0,3.8,2.4,6.1,6.2,6.1c2.9,0,4.6-2.1,5.1-2.7V24.6H290z"/>
		<path class="st0" d="M356.8,37.3c-1.1,1-5.6,3.7-11.7,3.7c-8.4,0-15.3-5.6-15.3-15.1c0-11.3,7.8-17.3,15.5-17.3
			c9,0,10.9,6.5,11.8,10.1c-7.6,3.7-15.4,5.8-21.1,7.2c0.3,4.1,3.5,12,12.5,12c4.1,0,6.6-1.7,7.6-2.1L356.8,37.3z M335.9,22.9
			c4.8-0.9,10.4-2.3,15.1-3.8c-0.9-4.1-2.6-8.2-7.7-8.2C337.7,10.9,335.9,18,335.9,22.9z"/>
		<path class="st0" d="M372.6,18.6c0-3-2.1-7.8-6.5-7.8c-2.5,0-4.3,1.8-4.3,4.7c0,7.6,14.8,5.4,14.8,16.1c0,6.4-5.2,9.4-11.6,9.4
			c-4.3,0-6.7-1.1-8.5-1.9c-1-3-1.3-6.4-1.3-9h1.8c1.3,4.3,3.6,8.7,9,8.7c3,0,4.7-2.6,4.7-4.9c0-9.1-14.8-5.9-14.8-16.8
			c0-5.5,4.9-8.5,10.7-8.5c3.5,0,5.6,1.1,7.1,1.9c0.7,2.4,0.9,4.5,0.9,8.1H372.6z"/>
		<path class="st0" d="M232,37.2c-1.4,1.4-6.3,6.7-15.3,6.8c-11.4,0.1-20.7-7.6-20.7-20.4c0-15.3,10.6-23.4,21-23.4
			c12.1,0,14.7,8.8,15.9,13.6c-10.3,5.1-20.8,7.9-28.6,9.7c0.4,5.6,4.7,16.3,16.9,16.3c5.5,0,8.1-3.6,9.4-4.3 M204.3,19.6
			c6.5-1.2,14.1-3.1,20.4-5.2c-1.3-5.6-3.5-11-10.4-11C206.6,3.4,204.3,13,204.3,19.6z"/>
		<path class="st0" d="M245.3,18.6c0-3-2.1-7.8-6.5-7.8c-2.5,0-4.3,1.8-4.3,4.7c0,7.6,14.8,5.4,14.8,16.1c0,6.4-5.2,9.4-11.6,9.4
			c-4.3,0-6.7-1.1-8.5-1.9c-1-3-1.3-6.4-1.3-9h1.8c1.3,4.3,3.6,8.7,9,8.7c3,0,4.7-2.6,4.7-4.9c0-9.1-14.8-5.9-14.8-16.8
			c0-5.5,4.9-8.5,10.7-8.5c3.5,0,5.6,1.1,7.1,1.9c0.7,2.4,0.9,4.5,0.9,8.1H245.3z"/>
		<path class="st0" d="M315.9,8.6c-4.5,0-7.5,1.9-9,2.8c0-0.5-0.3-2.1-0.8-2.8c-2.3,0-7.6,1.7-9.6,2.3l0.3,1.6l1.5-0.4
			c0.1,0,0.6-0.1,0.9-0.1c1.9,0,1.9,1.9,1.9,8.4v34.5h0c0,0,5.9,0.6,5.9-3.3l0-1.7l0-1.7v-7.9c1.1,0.3,2.7,0.7,5.5,0.7
			c7.4,0,18.1-4.3,18.1-17.9C330.4,13.8,323.8,8.6,315.9,8.6z M314.3,38.7c-4.3,0-5.7-1.3-7.4-2.4v-23c1.1-0.5,2.7-1.5,5.6-1.5
			c6,0,11.8,4.1,11.8,12.9C324.3,33.2,321,38.7,314.3,38.7z"/>
	</g>
</g>
<g>
	<path class="st1" d="M83.2,127.9c-9.6,4.6-19,9.8-28.1,15.5c-9.1,5.8-18,12.1-26.6,19c0.1-9.4,0.6-18.9,1.5-28.5
		c-9.3-2.3-19-4.2-28.9-5.6c9.9-7.9,20.2-15.2,30.7-21.9c10.5-6.6,21.4-12.6,32.4-17.9c3.2,6.6,6.3,13.1,9.5,19.7
		C76.9,114.8,80,121.3,83.2,127.9z"/>
	<path class="st2" d="M49.4,108.9C54,102,59,95.2,64.3,88.5c1.8,3.3,3.6,6.6,5.4,9.9c-6.9,3.5-13.7,7.3-20.4,11.4"/>
	<path class="st1" d="M330.3,127.9c9.6,4.6,19,9.8,28.1,15.5c9.1,5.8,18,12.1,26.6,19c-0.1-9.4-0.6-18.9-1.5-28.5
		c9.3-2.3,19-4.2,28.9-5.6c-9.9-7.9-20.2-15.2-30.7-21.9c-10.5-6.6-21.4-12.6-32.4-17.9c-3.2,6.6-6.3,13.1-9.5,19.7
		C336.6,114.8,333.5,121.3,330.3,127.9z"/>
	<path class="st2" d="M364.1,109c-4.6-6.9-9.6-13.8-14.9-20.4c-1.8,3.3-3.6,6.6-5.4,9.9c6.9,3.5,13.7,7.3,20.4,11.4"/>
	<path class="st3" d="M342.6,147c-84-48-187.5-48-271.6-0.1c-7.2-12.6-14.4-25.3-21.6-37.9c97.4-55.6,217.5-55.6,314.9,0.1
		C357.1,121.7,349.8,134.3,342.6,147z"/>
</g>
<g>
	<path class="st0" d="M135.5,110.7l-4.3-5.4l-13.2,3.9l-0.7,6.9l-2.5,0.7l2.9-28l2.7-0.8l17.5,22L135.5,110.7z M119.8,90.6
		l-1.7,16.3l11.8-3.4L119.8,90.6z"/>
	<path class="st0" d="M148.9,107.5l-4.3-25.7l8.2-1.4c8-1.3,13.9,3.6,15.1,10.7c1.2,7.1-2.8,13.7-10.8,15L148.9,107.5z M165.6,91.6
		c-1-6-5.7-10.2-12.5-9.1l-6,1l3.6,21.7l6-1C163.6,103,166.6,97.6,165.6,91.6z"/>
	<path class="st0" d="M190.2,102.3l-12-25.4l2.6-0.1l10.7,23l8.2-24l2.6-0.1l-9.3,26.5L190.2,102.3z"/>
	<path class="st0" d="M214.9,101.9l1.4-26l16.5,0.9l-0.1,2l-14.3-0.8l-0.5,9.6l14,0.8l-0.1,2l-14-0.8l-0.6,10.3l14.3,0.8l-0.1,2
		L214.9,101.9z"/>
	<path class="st0" d="M262.6,107.3l-12.4-24.8l-3.7,22l-2.2-0.4l4.3-25.6l2.2,0.4l12.4,24.4l3.7-21.7l2.2,0.4l-4.3,25.6L262.6,107.3
		z"/>
	<path class="st0" d="M284.7,112.7l6.6-23.1l-8.2-2.3l0.6-1.9l18.5,5.3l-0.6,2l-8.2-2.3l-6.6,23.1L284.7,112.7z"/>
</g>
</svg>
